<svg data-v-423bf9ae="" xmlns="http://www.w3.org/2000/svg" viewBox="0 0 359 90" class="iconLeft"><!----><!----><!----><g data-v-423bf9ae="" id="4a4a69cd-7a82-4169-bd26-af1e15b58c25" fill="black" transform="matrix(6.091370912234558,0,0,6.091370912234558,106.5516317449285,-7.6599006830438086)"><path d="M6.83 13.43C6.71 12.78 6.68 11.63 6.68 10.57L6.68 7.22L6.66 7.22L6.66 7.03C5.95 6.75 4.84 6.61 4.06 6.61C1.79 6.61 0.57 7.94 0.57 10.42C0.57 12.70 1.65 13.57 3.11 13.57C4.19 13.57 4.97 13.08 5.45 11.89C5.47 12.38 5.53 12.87 5.63 13.43ZM3.37 12.52C2.45 12.52 1.86 11.93 1.86 10.35C1.86 8.50 2.66 7.59 4.10 7.59C4.49 7.59 4.94 7.64 5.40 7.73L5.40 7.88C5.35 11.83 4.33 12.52 3.37 12.52ZM13.29 6.75L8.15 6.75L8.15 7.73L11.79 7.73L7.99 12.52L7.99 13.43L13.59 13.43L13.59 12.45L9.41 12.45L13.29 7.66ZM20.59 13.43L20.59 6.75L19.33 6.75L19.33 8.13C19.31 9.97 18.83 12.50 17.15 12.50C16.41 12.50 16.04 12.08 16.04 11.02L16.04 6.75L14.78 6.75L14.78 11.27C14.78 12.71 15.34 13.55 16.80 13.55C18.12 13.55 18.91 12.91 19.36 11.77L19.49 13.43ZM23.74 13.43L23.74 13.02C23.74 9.24 24.89 7.77 26.18 7.77C26.39 7.77 26.57 7.78 26.73 7.83L26.73 6.66C26.54 6.62 26.39 6.61 26.14 6.61C24.92 6.61 24.15 7.62 23.72 9.09L23.69 6.75L22.47 6.75L22.47 13.43ZM27.76 3.72L27.76 5.10L29.04 5.10L29.04 3.72ZM27.76 6.75L27.76 11.56C27.76 12.85 28.24 13.47 29.58 13.47C29.74 13.47 29.88 13.45 30.03 13.44L30.03 12.43C29.89 12.46 29.79 12.46 29.67 12.46C29.19 12.46 29.04 12.14 29.04 11.54L29.04 6.75ZM34.72 12.38C34.38 12.45 34.16 12.49 33.84 12.49C33.07 12.49 32.76 12.17 32.76 11.12L32.76 7.71L34.59 7.71L34.59 6.75L32.76 6.75L32.76 5.07L32.16 5.07L31.56 6.75L30.44 6.75L30.44 7.71L31.50 7.71L31.50 11.26C31.50 12.78 32.00 13.50 33.54 13.50C34.08 13.50 34.38 13.44 34.72 13.36ZM38.43 6.61C36.48 6.61 35.32 7.74 35.32 9.95C35.32 12.33 36.74 13.57 38.98 13.57C39.73 13.57 40.56 13.44 41.19 13.19L41.19 12.15C40.40 12.40 39.54 12.52 38.95 12.52C37.53 12.52 36.71 11.84 36.55 10.40L41.30 10.40L41.30 9.83C41.30 7.71 40.26 6.61 38.43 6.61ZM38.42 7.56C39.51 7.56 40.05 8.40 40.05 9.53L36.54 9.53C36.65 8.18 37.38 7.56 38.42 7.56Z"></path></g><!----><g data-v-423bf9ae="" id="dfac2df8-f6bd-4d14-817b-e7b99737da0a" transform="matrix(1.0112046621187167,0,0,1.0112046621187167,-5.073342222415057,-5.061608806492529)" stroke="none" fill="black"><path d="M5.914 43.865a44.143 44.143 0 0 0-.041 11.939l6.381-5.845-6.34-6.094zM14.733 46.794l14.404-20.177L14.48 23.86a1.963 1.963 0 0 1-.393-.117c-3.425 4.686-5.914 9.992-7.284 15.556.168.087.329.19.472.327l7.458 7.168zM66.665 79.408l-6.414 13.894c8.533-1.99 16.247-6.466 22.274-12.913l-14.603-2.747-1.257 1.766zM83.085 20.248C76.716 13.166 68.356 8.364 59.102 6.459l9.011 16.606 14.972-2.817zM14.668 53.171l-7.502 6.872a1.956 1.956 0 0 1-.444.299 44.146 44.146 0 0 0 7.798 16.533l15.006-2.823-14.858-20.881zM32.081 77.641l-14.606 2.748c6.028 6.449 13.743 10.924 22.278 12.914l-6.415-13.895-1.257-1.767zM84.955 47.096l7.771-7.479c.142-.136.302-.239.468-.325-1.372-5.563-3.859-10.865-7.282-15.548a2.03 2.03 0 0 1-.393.117l-15.121 2.845 14.557 20.39zM85.135 53.446l-14.66 20.606 15.004 2.823a44.17 44.17 0 0 0 7.798-16.532 1.945 1.945 0 0 1-.394-.257l-7.748-6.64zM36.92 77.624l7.278 15.766c.114.247.172.505.182.76 3.93.469 7.312.468 11.242-.001.01-.255.068-.513.182-.76l7.278-15.766H36.92zM65.779 27.118H33.682a2.09 2.09 0 0 1-.103.161L17.338 50.03l16.793 23.594H65.87l16.527-23.226-16.618-23.28zM40.838 6.472c-9.23 1.914-17.567 6.71-23.923 13.777l14.522 2.732 9.401-16.509zM94.118 55.877a43.998 43.998 0 0 0-.033-12.018l-6.59 6.342 6.623 5.676zM63.591 23.118L54.524 6.41a1.972 1.972 0 0 1-.21-.7 44.102 44.102 0 0 0-8.628 0c-.033.257-.1.509-.229.735l-9.495 16.673h27.629z"></path></g><!----></svg>